<?xml version="1.0" encoding="utf-8"?>
<!-- Generator: Adobe Illustrator 24.0.2, SVG Export Plug-In . SVG Version: 6.00 Build 0)  -->
<svg version="1.1" id="Warstwa_1" xmlns="http://www.w3.org/2000/svg" xmlns:xlink="http://www.w3.org/1999/xlink" x="0px" y="0px"
	 viewBox="0 0 430 430" style="enable-background:new 0 0 430 430;" xml:space="preserve">
<style type="text/css">
	.st0{fill:#ebe6ef;}
	.st1{opacity:0.5;}
	.st2{fill:#121331;}
	.st3{fill:#3a3347;}
	.st4{fill:#4bb3fd;}
	.st5{fill:#F24C00;}
	.st6{fill:#FFC738;}
	.st7{fill:#2CA58D;}
	.st8{display:none;}
	.st9{display:inline;fill:none;stroke:#121331;stroke-width:7;stroke-linecap:round;stroke-linejoin:round;}
	.st10{display:none;fill:none;stroke:#121331;stroke-width:7;stroke-linecap:round;stroke-linejoin:round;stroke-miterlimit:10;}
	.st11{fill:#F9C9C0;}
	.st12{fill:#F28BA8;}
	.st13{fill:#646e78;}
	.st14{fill:#B26836;}
	.st15{opacity:0.6;}
	.st16{opacity:0.7;}
	.st17{fill:#92140C;}
	.st18{opacity:0;}
	.st19{opacity:0.4;}
	.st20{opacity:0.8;}
	.st21{fill:none;}
	.st22{opacity:0.2;clip-path:url(#SVGID_2_);}
	.st23{opacity:0.2;clip-path:url(#SVGID_4_);}
	.st24{opacity:0.2;clip-path:url(#SVGID_6_);}
	.st25{opacity:0.2;clip-path:url(#SVGID_8_);}
	.st26{opacity:0.2;clip-path:url(#SVGID_10_);}
	.st27{opacity:0.2;clip-path:url(#SVGID_12_);}
	.st28{fill:#FFFFFF;}
</style>
<g>
	<path class="st3" d="M215,334.93c-50.45,0-91.5-41.05-91.5-91.5v-22.5c0-1.93,1.57-3.5,3.5-3.5s3.5,1.57,3.5,3.5v22.5
		c0,46.59,37.91,84.5,84.5,84.5s84.5-37.91,84.5-84.5v-22.25c0-1.93,1.57-3.5,3.5-3.5s3.5,1.57,3.5,3.5v22.25
		C306.5,293.89,265.45,334.93,215,334.93z"/>
</g>
<g>
	<path class="st3" d="M253.12,376.93h-73c-1.93,0-3.5-1.57-3.5-3.5s1.57-3.5,3.5-3.5h33.12v-38c0-1.93,1.57-3.5,3.5-3.5
		s3.5,1.57,3.5,3.5v38h32.88c1.93,0,3.5,1.57,3.5,3.5S255.06,376.93,253.12,376.93z"/>
</g>
<g>
	<path class="st4" d="M127,182.93c-1.93,0-3.5-1.57-3.5-3.5v-16.9c0-1.93,1.57-3.5,3.5-3.5s3.5,1.57,3.5,3.5v16.9
		C130.5,181.37,128.93,182.93,127,182.93z"/>
</g>
<g>
	<path class="st4" d="M96.88,182.93C96.87,182.93,96.87,182.93,96.88,182.93c-1.94,0-3.5-1.57-3.5-3.51l0.12-66.5
		c0-1.93,1.57-3.49,3.5-3.49c0,0,0,0,0.01,0c1.93,0,3.5,1.57,3.49,3.51l-0.12,66.5C100.37,181.37,98.81,182.93,96.88,182.93z"/>
</g>
<g>
	<path class="st4" d="M66.88,182.93C66.87,182.93,66.87,182.93,66.88,182.93c-1.94,0-3.5-1.57-3.5-3.5l0.12-86.97
		c0-1.93,1.57-3.5,3.5-3.5c0,0,0,0,0,0c1.93,0,3.5,1.57,3.5,3.5l-0.12,86.97C70.37,181.37,68.81,182.93,66.88,182.93z"/>
</g>
<g>
	<path class="st4" d="M36.88,182.93C36.87,182.93,36.87,182.93,36.88,182.93c-1.94,0-3.5-1.58-3.5-3.51l0.12-53.75
		c0-1.93,1.57-3.49,3.5-3.49c0,0,0,0,0.01,0c1.93,0,3.5,1.58,3.49,3.51l-0.12,53.75C40.37,181.37,38.81,182.93,36.88,182.93z"/>
</g>
<g>
	<path class="st4" d="M6.88,182.93c-0.01,0-0.01,0-0.02,0c-1.93-0.01-3.49-1.58-3.48-3.52l0.12-24.71c0.01-1.93,1.58-3.48,3.5-3.48
		c0.01,0,0.01,0,0.02,0c1.93,0.01,3.49,1.58,3.48,3.52l-0.12,24.71C10.37,181.38,8.8,182.93,6.88,182.93z"/>
</g>
<g>
	<path class="st4" d="M127,199.33c-1.93,0-3.5-1.57-3.5-3.5v-16.9c0-1.93,1.57-3.5,3.5-3.5s3.5,1.57,3.5,3.5v16.9
		C130.5,197.76,128.93,199.33,127,199.33z"/>
</g>
<g>
	<path class="st4" d="M97,248.93c-1.93,0-3.5-1.56-3.5-3.49l-0.12-66.5c0-1.93,1.56-3.5,3.49-3.51c0,0,0,0,0.01,0
		c1.93,0,3.5,1.56,3.5,3.49l0.12,66.5C100.5,247.36,98.94,248.93,97,248.93C97,248.93,97,248.93,97,248.93z"/>
</g>
<g>
	<path class="st4" d="M67,269.4c-1.93,0-3.5-1.56-3.5-3.5l-0.12-86.97c0-1.93,1.56-3.5,3.5-3.5c0,0,0,0,0,0c1.93,0,3.5,1.56,3.5,3.5
		l0.12,86.97C70.5,267.83,68.94,269.4,67,269.4C67,269.4,67,269.4,67,269.4z"/>
</g>
<g>
	<path class="st4" d="M37,236.18c-1.93,0-3.5-1.56-3.5-3.49l-0.12-53.75c0-1.93,1.56-3.5,3.49-3.51c0,0,0,0,0.01,0
		c1.93,0,3.5,1.56,3.5,3.49l0.12,53.75C40.5,234.6,38.94,236.17,37,236.18C37,236.18,37,236.18,37,236.18z"/>
</g>
<g>
	<path class="st4" d="M7,207.14c-1.92,0-3.49-1.56-3.5-3.48l-0.12-24.71c-0.01-1.93,1.55-3.51,3.48-3.52c0.01,0,0.01,0,0.02,0
		c1.92,0,3.49,1.56,3.5,3.48l0.12,24.71c0.01,1.93-1.55,3.51-3.48,3.52C7.01,207.14,7.01,207.14,7,207.14z"/>
</g>
<g>
	<path class="st4" d="M303,183.43c-1.93,0-3.5-1.57-3.5-3.5v-16.9c0-1.93,1.57-3.5,3.5-3.5s3.5,1.57,3.5,3.5v16.9
		C306.5,181.87,304.93,183.43,303,183.43z"/>
</g>
<g>
	<path class="st4" d="M333.12,183.43c-1.93,0-3.5-1.56-3.5-3.49l-0.12-66.5c0-1.93,1.56-3.5,3.49-3.51c0,0,0,0,0.01,0
		c1.93,0,3.5,1.56,3.5,3.49l0.12,66.5C336.63,181.86,335.06,183.43,333.12,183.43C333.13,183.43,333.13,183.43,333.12,183.43z"/>
</g>
<g>
	<path class="st4" d="M363.12,183.43c-1.93,0-3.5-1.56-3.5-3.5l-0.12-86.97c0-1.93,1.56-3.5,3.5-3.5c0,0,0,0,0,0
		c1.93,0,3.5,1.56,3.5,3.5l0.12,86.97C366.63,181.86,365.06,183.43,363.12,183.43C363.13,183.43,363.13,183.43,363.12,183.43z"/>
</g>
<g>
	<path class="st3" d="M277,116.57v128c0,0.79-0.01,1.58-0.05,2.36h-123.9c-0.04-0.78-0.05-1.57-0.05-2.36v-128
		c0-34.19,27.81-62,62-62S277,82.38,277,116.57z"/>
</g>
<g>
	<path class="st4" d="M393.12,183.43c-1.93,0-3.5-1.56-3.5-3.49l-0.12-53.75c0-1.93,1.56-3.5,3.49-3.51c0,0,0,0,0.01,0
		c1.93,0,3.5,1.56,3.5,3.49l0.12,53.75C396.63,181.86,395.07,183.43,393.12,183.43C393.13,183.43,393.13,183.43,393.12,183.43z"/>
</g>
<g>
	<path class="st4" d="M423.12,183.43c-1.92,0-3.49-1.56-3.5-3.48l-0.12-24.71c-0.01-1.93,1.55-3.51,3.48-3.52
		c1.92-0.05,3.51,1.55,3.52,3.48l0.12,24.71c0.01,1.93-1.55,3.51-3.48,3.52C423.14,183.43,423.13,183.43,423.12,183.43z"/>
</g>
<g>
	<path class="st4" d="M303,200.83c-1.93,0-3.5-1.57-3.5-3.5v-16.9c0-1.93,1.57-3.5,3.5-3.5s3.5,1.57,3.5,3.5v16.9
		C306.5,199.26,304.93,200.83,303,200.83z"/>
</g>
<g>
	<path class="st4" d="M333,250.43C333,250.43,333,250.43,333,250.43c-1.94,0-3.5-1.57-3.5-3.51l0.12-66.5c0-1.93,1.57-3.49,3.5-3.49
		c0,0,0,0,0.01,0c1.93,0,3.5,1.57,3.49,3.51l-0.12,66.5C336.5,248.87,334.93,250.43,333,250.43z"/>
</g>
<g>
	<path class="st4" d="M363,270.9C363,270.9,363,270.9,363,270.9c-1.94,0-3.5-1.57-3.5-3.5l0.12-86.97c0-1.93,1.57-3.5,3.5-3.5
		c0,0,0,0,0,0c1.93,0,3.5,1.57,3.5,3.5l-0.12,86.97C366.5,269.34,364.93,270.9,363,270.9z"/>
</g>
<g class="st1">
	<path class="st3" d="M168,244.57v-128c0-31.65,23.84-57.81,54.5-61.53c-2.46-0.3-4.96-0.47-7.5-0.47c-34.19,0-62,27.81-62,62v128
		c0,34.19,27.81,62,62,62c2.54,0,5.04-0.17,7.5-0.47C191.84,302.38,168,276.21,168,244.57z"/>
</g>
<g>
	<path class="st4" d="M393,237.68C393,237.68,393,237.68,393,237.68c-1.94,0-3.5-1.58-3.5-3.51l0.12-53.75
		c0-1.93,1.57-3.49,3.5-3.49c0,0,0,0,0.01,0c1.93,0,3.5,1.58,3.49,3.51l-0.12,53.75C396.5,236.12,394.93,237.68,393,237.68z"/>
</g>
<g>
	<path class="st4" d="M423,208.64c-0.01,0-0.01,0-0.02,0c-1.93-0.01-3.49-1.58-3.48-3.52l0.12-24.71c0.01-1.93,1.58-3.48,3.5-3.48
		c0.01,0,0.01,0,0.02,0c1.93,0.01,3.49,1.58,3.48,3.52l-0.12,24.71C426.49,207.08,424.92,208.64,423,208.64z"/>
</g>
<g>
	<defs>
		<path id="SVGID_1_" d="M277,244.57c0,0.79-0.04,1.57-0.07,2.36H153l0-130.36c0-34.19,27.82-62,62-62c34.19,0,62,27.81,62,62
			V244.57z"/>
	</defs>
	<clipPath id="SVGID_2_">
		<use xlink:href="#SVGID_1_"  style="overflow:visible;"/>
	</clipPath>
	<g class="st22">
		<g>
			<g>
				<circle class="st3" cx="131.64" cy="160.81" r="2.82"/>
			</g>
			<g>
				<circle class="st3" cx="143.74" cy="160.81" r="2.82"/>
			</g>
			<g>
				<circle class="st3" cx="155.83" cy="160.81" r="2.82"/>
			</g>
			<g>
				<circle class="st3" cx="167.93" cy="160.81" r="2.82"/>
			</g>
			<g>
				<circle class="st3" cx="180.02" cy="160.81" r="2.82"/>
			</g>
			<g>
				<circle class="st3" cx="192.12" cy="160.81" r="2.82"/>
			</g>
			<g>
				<circle class="st3" cx="204.22" cy="160.81" r="2.82"/>
			</g>
			<g>
				<circle class="st3" cx="216.31" cy="160.81" r="2.82"/>
			</g>
			<g>
				<circle class="st3" cx="228.41" cy="160.81" r="2.82"/>
			</g>
			<g>
				<circle class="st3" cx="240.51" cy="160.81" r="2.82"/>
			</g>
			<g>
				<circle class="st3" cx="252.6" cy="160.81" r="2.82"/>
			</g>
			<g>
				<circle class="st3" cx="264.7" cy="160.81" r="2.82"/>
			</g>
			<g>
				<circle class="st3" cx="276.8" cy="160.81" r="2.82"/>
			</g>
			<g>
				<circle class="st3" cx="288.89" cy="160.81" r="2.82"/>
			</g>
		</g>
		<g>
			<g>
				<circle class="st3" cx="137.69" cy="170.93" r="2.82"/>
			</g>
			<g>
				<circle class="st3" cx="149.78" cy="170.93" r="2.82"/>
			</g>
			<g>
				<circle class="st3" cx="161.88" cy="170.93" r="2.82"/>
			</g>
			<g>
				<circle class="st3" cx="173.98" cy="170.93" r="2.82"/>
			</g>
			<g>
				<circle class="st3" cx="186.07" cy="170.93" r="2.82"/>
			</g>
			<g>
				<circle class="st3" cx="198.17" cy="170.93" r="2.82"/>
			</g>
			<g>
				<circle class="st3" cx="210.27" cy="170.93" r="2.82"/>
			</g>
			<g>
				<circle class="st3" cx="222.36" cy="170.93" r="2.82"/>
			</g>
			<g>
				<circle class="st3" cx="234.46" cy="170.93" r="2.82"/>
			</g>
			<g>
				<circle class="st3" cx="246.55" cy="170.93" r="2.82"/>
			</g>
			<g>
				<circle class="st3" cx="258.65" cy="170.93" r="2.82"/>
			</g>
			<g>
				<circle class="st3" cx="270.75" cy="170.93" r="2.82"/>
			</g>
			<g>
				<circle class="st3" cx="282.84" cy="170.93" r="2.82"/>
			</g>
			<g>
				<circle class="st3" cx="294.94" cy="170.93" r="2.82"/>
			</g>
		</g>
		<g>
			<g>
				<circle class="st3" cx="131.64" cy="181.04" r="2.82"/>
			</g>
			<g>
				<circle class="st3" cx="143.74" cy="181.04" r="2.82"/>
			</g>
			<g>
				<circle class="st3" cx="155.83" cy="181.04" r="2.82"/>
			</g>
			<g>
				<circle class="st3" cx="167.93" cy="181.04" r="2.82"/>
			</g>
			<g>
				<circle class="st3" cx="180.02" cy="181.04" r="2.82"/>
			</g>
			<g>
				<circle class="st3" cx="192.12" cy="181.04" r="2.82"/>
			</g>
			<g>
				<circle class="st3" cx="204.22" cy="181.04" r="2.82"/>
			</g>
			<g>
				<circle class="st3" cx="216.31" cy="181.04" r="2.82"/>
			</g>
			<g>
				<circle class="st3" cx="228.41" cy="181.04" r="2.82"/>
			</g>
			<g>
				<circle class="st3" cx="240.51" cy="181.04" r="2.82"/>
			</g>
			<g>
				<circle class="st3" cx="252.6" cy="181.04" r="2.82"/>
			</g>
			<g>
				<circle class="st3" cx="264.7" cy="181.04" r="2.82"/>
			</g>
			<g>
				<circle class="st3" cx="276.8" cy="181.04" r="2.82"/>
			</g>
			<g>
				<circle class="st3" cx="288.89" cy="181.04" r="2.82"/>
			</g>
		</g>
		<g>
			<g>
				<circle class="st3" cx="137.69" cy="191.16" r="2.82"/>
			</g>
			<g>
				<circle class="st3" cx="149.78" cy="191.16" r="2.82"/>
			</g>
			<g>
				<circle class="st3" cx="161.88" cy="191.16" r="2.82"/>
			</g>
			<g>
				<circle class="st3" cx="173.98" cy="191.16" r="2.82"/>
			</g>
			<g>
				<circle class="st3" cx="186.07" cy="191.16" r="2.82"/>
			</g>
			<g>
				<circle class="st3" cx="198.17" cy="191.16" r="2.82"/>
			</g>
			<g>
				<circle class="st3" cx="210.27" cy="191.16" r="2.82"/>
			</g>
			<g>
				<circle class="st3" cx="222.36" cy="191.16" r="2.82"/>
			</g>
			<g>
				<circle class="st3" cx="234.46" cy="191.16" r="2.82"/>
			</g>
			<g>
				<circle class="st3" cx="246.55" cy="191.16" r="2.82"/>
			</g>
			<g>
				<circle class="st3" cx="258.65" cy="191.16" r="2.82"/>
			</g>
			<g>
				<circle class="st3" cx="270.75" cy="191.16" r="2.82"/>
			</g>
			<g>
				<circle class="st3" cx="282.84" cy="191.16" r="2.82"/>
			</g>
			<g>
				<circle class="st3" cx="294.94" cy="191.16" r="2.82"/>
			</g>
		</g>
		<g>
			<g>
				<circle class="st3" cx="131.64" cy="201.28" r="2.82"/>
			</g>
			<g>
				<circle class="st3" cx="143.74" cy="201.28" r="2.82"/>
			</g>
			<g>
				<circle class="st3" cx="155.83" cy="201.28" r="2.82"/>
			</g>
			<g>
				<circle class="st3" cx="167.93" cy="201.28" r="2.82"/>
			</g>
			<g>
				<circle class="st3" cx="180.02" cy="201.28" r="2.82"/>
			</g>
			<g>
				<circle class="st3" cx="192.12" cy="201.28" r="2.82"/>
			</g>
			<g>
				<circle class="st3" cx="204.22" cy="201.28" r="2.82"/>
			</g>
			<g>
				<circle class="st3" cx="216.31" cy="201.28" r="2.82"/>
			</g>
			<g>
				<circle class="st3" cx="228.41" cy="201.28" r="2.82"/>
			</g>
			<g>
				<circle class="st3" cx="240.51" cy="201.28" r="2.82"/>
			</g>
			<g>
				<circle class="st3" cx="252.6" cy="201.28" r="2.82"/>
			</g>
			<g>
				<circle class="st3" cx="264.7" cy="201.28" r="2.82"/>
			</g>
			<g>
				<circle class="st3" cx="276.8" cy="201.28" r="2.82"/>
			</g>
			<g>
				<circle class="st3" cx="288.89" cy="201.28" r="2.82"/>
			</g>
		</g>
		<g>
			<g>
				<circle class="st3" cx="137.69" cy="211.4" r="2.82"/>
			</g>
			<g>
				<circle class="st3" cx="149.78" cy="211.4" r="2.82"/>
			</g>
			<g>
				<circle class="st3" cx="161.88" cy="211.4" r="2.82"/>
			</g>
			<g>
				<circle class="st3" cx="173.98" cy="211.4" r="2.82"/>
			</g>
			<g>
				<circle class="st3" cx="186.07" cy="211.4" r="2.82"/>
			</g>
			<g>
				<circle class="st3" cx="198.17" cy="211.4" r="2.82"/>
			</g>
			<g>
				<circle class="st3" cx="210.27" cy="211.4" r="2.82"/>
			</g>
			<g>
				<circle class="st3" cx="222.36" cy="211.4" r="2.82"/>
			</g>
			<g>
				<circle class="st3" cx="234.46" cy="211.4" r="2.82"/>
			</g>
			<g>
				<circle class="st3" cx="246.55" cy="211.4" r="2.82"/>
			</g>
			<g>
				<circle class="st3" cx="258.65" cy="211.4" r="2.82"/>
			</g>
			<g>
				<circle class="st3" cx="270.75" cy="211.4" r="2.82"/>
			</g>
			<g>
				<circle class="st3" cx="282.84" cy="211.4" r="2.82"/>
			</g>
			<g>
				<circle class="st3" cx="294.94" cy="211.4" r="2.82"/>
			</g>
		</g>
		<g>
			<g>
				<circle class="st3" cx="131.64" cy="221.52" r="2.82"/>
			</g>
			<g>
				<circle class="st3" cx="143.74" cy="221.52" r="2.82"/>
			</g>
			<g>
				<circle class="st3" cx="155.83" cy="221.52" r="2.82"/>
			</g>
			<g>
				<circle class="st3" cx="167.93" cy="221.52" r="2.82"/>
			</g>
			<g>
				<circle class="st3" cx="180.02" cy="221.52" r="2.82"/>
			</g>
			<g>
				<circle class="st3" cx="192.12" cy="221.52" r="2.82"/>
			</g>
			<g>
				<circle class="st3" cx="204.22" cy="221.52" r="2.82"/>
			</g>
			<g>
				<circle class="st3" cx="216.31" cy="221.52" r="2.82"/>
			</g>
			<g>
				<circle class="st3" cx="228.41" cy="221.52" r="2.82"/>
			</g>
			<g>
				<circle class="st3" cx="240.51" cy="221.52" r="2.82"/>
			</g>
			<g>
				<circle class="st3" cx="252.6" cy="221.52" r="2.82"/>
			</g>
			<g>
				<circle class="st3" cx="264.7" cy="221.52" r="2.82"/>
			</g>
			<g>
				<circle class="st3" cx="276.8" cy="221.52" r="2.82"/>
			</g>
			<g>
				<circle class="st3" cx="288.89" cy="221.52" r="2.82"/>
			</g>
		</g>
		<g>
			<g>
				<circle class="st3" cx="137.69" cy="231.64" r="2.82"/>
			</g>
			<g>
				<circle class="st3" cx="149.78" cy="231.64" r="2.82"/>
			</g>
			<g>
				<circle class="st3" cx="161.88" cy="231.64" r="2.82"/>
			</g>
			<g>
				<circle class="st3" cx="173.98" cy="231.64" r="2.82"/>
			</g>
			<g>
				<circle class="st3" cx="186.07" cy="231.64" r="2.82"/>
			</g>
			<g>
				<circle class="st3" cx="198.17" cy="231.64" r="2.82"/>
			</g>
			<g>
				<circle class="st3" cx="210.27" cy="231.64" r="2.82"/>
			</g>
			<g>
				<circle class="st3" cx="222.36" cy="231.64" r="2.82"/>
			</g>
			<g>
				<circle class="st3" cx="234.46" cy="231.64" r="2.82"/>
			</g>
			<g>
				<circle class="st3" cx="246.55" cy="231.64" r="2.82"/>
			</g>
			<g>
				<circle class="st3" cx="258.65" cy="231.64" r="2.82"/>
			</g>
			<g>
				<circle class="st3" cx="270.75" cy="231.64" r="2.82"/>
			</g>
			<g>
				<circle class="st3" cx="282.84" cy="231.64" r="2.82"/>
			</g>
			<g>
				<circle class="st3" cx="294.94" cy="231.64" r="2.82"/>
			</g>
		</g>
		<g>
			<g>
				<circle class="st3" cx="131.64" cy="241.76" r="2.82"/>
			</g>
			<g>
				<circle class="st3" cx="143.74" cy="241.76" r="2.82"/>
			</g>
			<g>
				<circle class="st3" cx="155.83" cy="241.76" r="2.82"/>
			</g>
			<g>
				<circle class="st3" cx="167.93" cy="241.76" r="2.82"/>
			</g>
			<g>
				<circle class="st3" cx="180.02" cy="241.76" r="2.82"/>
			</g>
			<g>
				<circle class="st3" cx="192.12" cy="241.76" r="2.82"/>
			</g>
			<g>
				<circle class="st3" cx="204.22" cy="241.76" r="2.82"/>
			</g>
			<g>
				<circle class="st3" cx="216.31" cy="241.76" r="2.82"/>
			</g>
			<g>
				<circle class="st3" cx="228.41" cy="241.76" r="2.82"/>
			</g>
			<g>
				<circle class="st3" cx="240.51" cy="241.76" r="2.82"/>
			</g>
			<g>
				<circle class="st3" cx="252.6" cy="241.76" r="2.82"/>
			</g>
			<g>
				<circle class="st3" cx="264.7" cy="241.76" r="2.82"/>
			</g>
			<g>
				<circle class="st3" cx="276.8" cy="241.76" r="2.82"/>
			</g>
			<g>
				<circle class="st3" cx="288.89" cy="241.76" r="2.82"/>
			</g>
		</g>
		<g>
			<g>
				<circle class="st3" cx="137.69" cy="251.87" r="2.82"/>
			</g>
			<g>
				<circle class="st3" cx="149.78" cy="251.87" r="2.82"/>
			</g>
			<g>
				<circle class="st3" cx="161.88" cy="251.87" r="2.82"/>
			</g>
			<g>
				<circle class="st3" cx="173.98" cy="251.87" r="2.82"/>
			</g>
			<g>
				<circle class="st3" cx="186.07" cy="251.87" r="2.82"/>
			</g>
			<g>
				<circle class="st3" cx="198.17" cy="251.87" r="2.82"/>
			</g>
			<g>
				<circle class="st3" cx="210.27" cy="251.87" r="2.82"/>
			</g>
			<g>
				<circle class="st3" cx="222.36" cy="251.87" r="2.82"/>
			</g>
			<g>
				<circle class="st3" cx="234.46" cy="251.87" r="2.82"/>
			</g>
			<g>
				<circle class="st3" cx="246.55" cy="251.87" r="2.82"/>
			</g>
			<g>
				<circle class="st3" cx="258.65" cy="251.87" r="2.82"/>
			</g>
			<g>
				<circle class="st3" cx="270.75" cy="251.87" r="2.82"/>
			</g>
			<g>
				<circle class="st3" cx="282.84" cy="251.87" r="2.82"/>
			</g>
			<g>
				<circle class="st3" cx="294.94" cy="251.87" r="2.82"/>
			</g>
		</g>
		<g>
			<g>
				<circle class="st3" cx="131.64" cy="261.99" r="2.82"/>
			</g>
			<g>
				<circle class="st3" cx="143.74" cy="261.99" r="2.82"/>
			</g>
			<g>
				<circle class="st3" cx="155.83" cy="261.99" r="2.82"/>
			</g>
			<g>
				<circle class="st3" cx="167.93" cy="261.99" r="2.82"/>
			</g>
			<g>
				<circle class="st3" cx="180.02" cy="261.99" r="2.82"/>
			</g>
			<g>
				<circle class="st3" cx="192.12" cy="261.99" r="2.82"/>
			</g>
			<g>
				<circle class="st3" cx="204.22" cy="261.99" r="2.82"/>
			</g>
			<g>
				<circle class="st3" cx="216.31" cy="261.99" r="2.82"/>
			</g>
			<g>
				<circle class="st3" cx="228.41" cy="261.99" r="2.82"/>
			</g>
			<g>
				<circle class="st3" cx="240.51" cy="261.99" r="2.82"/>
			</g>
			<g>
				<circle class="st3" cx="252.6" cy="261.99" r="2.82"/>
			</g>
			<g>
				<circle class="st3" cx="264.7" cy="261.99" r="2.82"/>
			</g>
			<g>
				<circle class="st3" cx="276.8" cy="261.99" r="2.82"/>
			</g>
			<g>
				<circle class="st3" cx="288.89" cy="261.99" r="2.82"/>
			</g>
		</g>
		<g>
			<g>
				<circle class="st3" cx="137.69" cy="272.11" r="2.82"/>
			</g>
			<g>
				<circle class="st3" cx="149.78" cy="272.11" r="2.82"/>
			</g>
			<g>
				<circle class="st3" cx="161.88" cy="272.11" r="2.82"/>
			</g>
			<g>
				<circle class="st3" cx="173.98" cy="272.11" r="2.82"/>
			</g>
			<g>
				<circle class="st3" cx="186.07" cy="272.11" r="2.82"/>
			</g>
			<g>
				<circle class="st3" cx="198.17" cy="272.11" r="2.82"/>
			</g>
			<g>
				<circle class="st3" cx="210.27" cy="272.11" r="2.82"/>
			</g>
			<g>
				<circle class="st3" cx="222.36" cy="272.11" r="2.82"/>
			</g>
			<g>
				<circle class="st3" cx="234.46" cy="272.11" r="2.82"/>
			</g>
			<g>
				<circle class="st3" cx="246.55" cy="272.11" r="2.82"/>
			</g>
			<g>
				<circle class="st3" cx="258.65" cy="272.11" r="2.82"/>
			</g>
			<g>
				<circle class="st3" cx="270.75" cy="272.11" r="2.82"/>
			</g>
			<g>
				<circle class="st3" cx="282.84" cy="272.11" r="2.82"/>
			</g>
			<g>
				<circle class="st3" cx="294.94" cy="272.11" r="2.82"/>
			</g>
		</g>
		<g>
			<g>
				<circle class="st3" cx="131.64" cy="282.23" r="2.82"/>
			</g>
			<g>
				<circle class="st3" cx="143.74" cy="282.23" r="2.82"/>
			</g>
			<g>
				<circle class="st3" cx="155.83" cy="282.23" r="2.82"/>
			</g>
			<g>
				<circle class="st3" cx="167.93" cy="282.23" r="2.82"/>
			</g>
			<g>
				<circle class="st3" cx="180.02" cy="282.23" r="2.82"/>
			</g>
			<g>
				<circle class="st3" cx="192.12" cy="282.23" r="2.82"/>
			</g>
			<g>
				<circle class="st3" cx="204.22" cy="282.23" r="2.82"/>
			</g>
			<g>
				<circle class="st3" cx="216.31" cy="282.23" r="2.82"/>
			</g>
			<g>
				<circle class="st3" cx="228.41" cy="282.23" r="2.82"/>
			</g>
			<g>
				<circle class="st3" cx="240.51" cy="282.23" r="2.82"/>
			</g>
			<g>
				<circle class="st3" cx="252.6" cy="282.23" r="2.82"/>
			</g>
			<g>
				<circle class="st3" cx="264.7" cy="282.23" r="2.82"/>
			</g>
			<g>
				<circle class="st3" cx="276.8" cy="282.23" r="2.82"/>
			</g>
			<g>
				<circle class="st3" cx="288.89" cy="282.23" r="2.82"/>
			</g>
		</g>
		<g>
			<g>
				<circle class="st3" cx="137.69" cy="292.35" r="2.82"/>
			</g>
			<g>
				<circle class="st3" cx="149.78" cy="292.35" r="2.82"/>
			</g>
			<g>
				<circle class="st3" cx="161.88" cy="292.35" r="2.82"/>
			</g>
			<g>
				<circle class="st3" cx="173.98" cy="292.35" r="2.82"/>
			</g>
			<g>
				<circle class="st3" cx="186.07" cy="292.35" r="2.82"/>
			</g>
			<g>
				<circle class="st3" cx="198.17" cy="292.35" r="2.82"/>
			</g>
			<g>
				<circle class="st3" cx="210.27" cy="292.35" r="2.82"/>
			</g>
			<g>
				<circle class="st3" cx="222.36" cy="292.35" r="2.82"/>
			</g>
			<g>
				<circle class="st3" cx="234.46" cy="292.35" r="2.82"/>
			</g>
			<g>
				<circle class="st3" cx="246.55" cy="292.35" r="2.82"/>
			</g>
			<g>
				<circle class="st3" cx="258.65" cy="292.35" r="2.82"/>
			</g>
			<g>
				<circle class="st3" cx="270.75" cy="292.35" r="2.82"/>
			</g>
			<g>
				<circle class="st3" cx="282.84" cy="292.35" r="2.82"/>
			</g>
			<g>
				<circle class="st3" cx="294.94" cy="292.35" r="2.82"/>
			</g>
		</g>
		<g>
			<g>
				<circle class="st3" cx="131.64" cy="302.47" r="2.82"/>
			</g>
			<g>
				<circle class="st3" cx="143.74" cy="302.47" r="2.82"/>
			</g>
			<g>
				<circle class="st3" cx="155.83" cy="302.47" r="2.82"/>
			</g>
			<g>
				<circle class="st3" cx="167.93" cy="302.47" r="2.82"/>
			</g>
			<g>
				<circle class="st3" cx="180.02" cy="302.47" r="2.82"/>
			</g>
			<g>
				<circle class="st3" cx="192.12" cy="302.47" r="2.82"/>
			</g>
			<g>
				<circle class="st3" cx="204.22" cy="302.47" r="2.82"/>
			</g>
			<g>
				<circle class="st3" cx="216.31" cy="302.47" r="2.82"/>
			</g>
			<g>
				<circle class="st3" cx="228.41" cy="302.47" r="2.82"/>
			</g>
			<g>
				<circle class="st3" cx="240.51" cy="302.47" r="2.82"/>
			</g>
			<g>
				<circle class="st3" cx="252.6" cy="302.47" r="2.82"/>
			</g>
			<g>
				<circle class="st3" cx="264.7" cy="302.47" r="2.82"/>
			</g>
			<g>
				<circle class="st3" cx="276.8" cy="302.47" r="2.82"/>
			</g>
		</g>
		<g>
			<g>
				<circle class="st3" cx="137.89" cy="9.03" r="2.82"/>
			</g>
			<g>
				<circle class="st3" cx="149.99" cy="9.03" r="2.82"/>
			</g>
			<g>
				<circle class="st3" cx="162.08" cy="9.03" r="2.82"/>
			</g>
			<g>
				<circle class="st3" cx="174.18" cy="9.03" r="2.82"/>
			</g>
			<g>
				<circle class="st3" cx="186.28" cy="9.03" r="2.82"/>
			</g>
			<g>
				<circle class="st3" cx="198.37" cy="9.03" r="2.82"/>
			</g>
			<g>
				<circle class="st3" cx="210.47" cy="9.03" r="2.82"/>
			</g>
			<g>
				<circle class="st3" cx="222.57" cy="9.03" r="2.82"/>
			</g>
			<g>
				<circle class="st3" cx="234.66" cy="9.03" r="2.82"/>
			</g>
			<g>
				<circle class="st3" cx="246.76" cy="9.03" r="2.82"/>
			</g>
			<g>
				<circle class="st3" cx="258.85" cy="9.03" r="2.82"/>
			</g>
			<g>
				<circle class="st3" cx="270.95" cy="9.03" r="2.82"/>
			</g>
			<g>
				<circle class="st3" cx="283.05" cy="9.03" r="2.82"/>
			</g>
			<g>
				<circle class="st3" cx="295.14" cy="9.03" r="2.82"/>
			</g>
		</g>
		<g>
			<g>
				<circle class="st3" cx="143.94" cy="19.15" r="2.82"/>
			</g>
			<g>
				<circle class="st3" cx="156.04" cy="19.15" r="2.82"/>
			</g>
			<g>
				<circle class="st3" cx="168.13" cy="19.15" r="2.82"/>
			</g>
			<g>
				<circle class="st3" cx="180.23" cy="19.15" r="2.82"/>
			</g>
			<g>
				<circle class="st3" cx="192.32" cy="19.15" r="2.82"/>
			</g>
			<g>
				<circle class="st3" cx="204.42" cy="19.15" r="2.82"/>
			</g>
			<g>
				<circle class="st3" cx="216.52" cy="19.15" r="2.82"/>
			</g>
			<g>
				<circle class="st3" cx="228.61" cy="19.15" r="2.82"/>
			</g>
			<g>
				<circle class="st3" cx="240.71" cy="19.15" r="2.82"/>
			</g>
			<g>
				<circle class="st3" cx="252.81" cy="19.15" r="2.82"/>
			</g>
			<g>
				<circle class="st3" cx="264.9" cy="19.15" r="2.82"/>
			</g>
			<g>
				<circle class="st3" cx="277" cy="19.15" r="2.82"/>
			</g>
			<g>
				<circle class="st3" cx="289.1" cy="19.15" r="2.82"/>
			</g>
			<g>
				<circle class="st3" cx="301.19" cy="19.15" r="2.82"/>
			</g>
		</g>
		<g>
			<g>
				<circle class="st3" cx="137.89" cy="29.27" r="2.82"/>
			</g>
			<g>
				<circle class="st3" cx="149.99" cy="29.27" r="2.82"/>
			</g>
			<g>
				<circle class="st3" cx="162.08" cy="29.27" r="2.82"/>
			</g>
			<g>
				<circle class="st3" cx="174.18" cy="29.27" r="2.82"/>
			</g>
			<g>
				<circle class="st3" cx="186.28" cy="29.27" r="2.82"/>
			</g>
			<g>
				<circle class="st3" cx="198.37" cy="29.27" r="2.82"/>
			</g>
			<g>
				<circle class="st3" cx="210.47" cy="29.27" r="2.82"/>
			</g>
			<g>
				<circle class="st3" cx="222.57" cy="29.27" r="2.82"/>
			</g>
			<g>
				<circle class="st3" cx="234.66" cy="29.27" r="2.82"/>
			</g>
			<g>
				<circle class="st3" cx="246.76" cy="29.27" r="2.82"/>
			</g>
			<g>
				<circle class="st3" cx="258.85" cy="29.27" r="2.82"/>
			</g>
			<g>
				<circle class="st3" cx="270.95" cy="29.27" r="2.82"/>
			</g>
			<g>
				<circle class="st3" cx="283.05" cy="29.27" r="2.82"/>
			</g>
			<g>
				<circle class="st3" cx="295.14" cy="29.27" r="2.82"/>
			</g>
		</g>
		<g>
			<g>
				<circle class="st3" cx="143.94" cy="39.39" r="2.82"/>
			</g>
			<g>
				<circle class="st3" cx="156.04" cy="39.39" r="2.82"/>
			</g>
			<g>
				<circle class="st3" cx="168.13" cy="39.39" r="2.82"/>
			</g>
			<g>
				<circle class="st3" cx="180.23" cy="39.39" r="2.82"/>
			</g>
			<g>
				<circle class="st3" cx="192.32" cy="39.39" r="2.82"/>
			</g>
			<g>
				<circle class="st3" cx="204.42" cy="39.39" r="2.82"/>
			</g>
			<g>
				<circle class="st3" cx="216.52" cy="39.39" r="2.82"/>
			</g>
			<g>
				<circle class="st3" cx="228.61" cy="39.39" r="2.82"/>
			</g>
			<g>
				<circle class="st3" cx="240.71" cy="39.39" r="2.82"/>
			</g>
			<g>
				<circle class="st3" cx="252.81" cy="39.39" r="2.82"/>
			</g>
			<g>
				<circle class="st3" cx="264.9" cy="39.39" r="2.82"/>
			</g>
			<g>
				<circle class="st3" cx="277" cy="39.39" r="2.82"/>
			</g>
			<g>
				<circle class="st3" cx="289.1" cy="39.39" r="2.82"/>
			</g>
			<g>
				<circle class="st3" cx="301.19" cy="39.39" r="2.82"/>
			</g>
		</g>
		<g>
			<g>
				<circle class="st3" cx="137.89" cy="49.5" r="2.82"/>
			</g>
			<g>
				<circle class="st3" cx="149.99" cy="49.5" r="2.82"/>
			</g>
			<g>
				<circle class="st3" cx="162.08" cy="49.5" r="2.82"/>
			</g>
			<g>
				<circle class="st3" cx="174.18" cy="49.5" r="2.82"/>
			</g>
			<g>
				<circle class="st3" cx="186.28" cy="49.5" r="2.82"/>
			</g>
			<g>
				<circle class="st3" cx="198.37" cy="49.5" r="2.82"/>
			</g>
			<g>
				<circle class="st3" cx="210.47" cy="49.5" r="2.82"/>
			</g>
			<g>
				<circle class="st3" cx="222.57" cy="49.5" r="2.82"/>
			</g>
			<g>
				<circle class="st3" cx="234.66" cy="49.5" r="2.82"/>
			</g>
			<g>
				<circle class="st3" cx="246.76" cy="49.5" r="2.82"/>
			</g>
			<g>
				<circle class="st3" cx="258.85" cy="49.5" r="2.82"/>
			</g>
			<g>
				<circle class="st3" cx="270.95" cy="49.5" r="2.82"/>
			</g>
			<g>
				<circle class="st3" cx="283.05" cy="49.5" r="2.82"/>
			</g>
			<g>
				<circle class="st3" cx="295.14" cy="49.5" r="2.82"/>
			</g>
		</g>
		<g>
			<g>
				<circle class="st3" cx="143.94" cy="59.62" r="2.82"/>
			</g>
			<g>
				<circle class="st3" cx="156.04" cy="59.62" r="2.82"/>
			</g>
			<g>
				<circle class="st3" cx="168.13" cy="59.62" r="2.82"/>
			</g>
			<g>
				<circle class="st3" cx="180.23" cy="59.62" r="2.82"/>
			</g>
			<g>
				<circle class="st3" cx="192.32" cy="59.62" r="2.82"/>
			</g>
			<g>
				<circle class="st3" cx="204.42" cy="59.62" r="2.82"/>
			</g>
			<g>
				<circle class="st3" cx="216.52" cy="59.62" r="2.82"/>
			</g>
			<g>
				<circle class="st3" cx="228.61" cy="59.62" r="2.82"/>
			</g>
			<g>
				<circle class="st3" cx="240.71" cy="59.62" r="2.82"/>
			</g>
			<g>
				<circle class="st3" cx="252.81" cy="59.62" r="2.82"/>
			</g>
			<g>
				<circle class="st3" cx="264.9" cy="59.62" r="2.82"/>
			</g>
			<g>
				<circle class="st3" cx="277" cy="59.62" r="2.82"/>
			</g>
			<g>
				<circle class="st3" cx="289.1" cy="59.62" r="2.82"/>
			</g>
			<g>
				<circle class="st3" cx="301.19" cy="59.62" r="2.82"/>
			</g>
		</g>
		<g>
			<g>
				<circle class="st3" cx="137.89" cy="69.74" r="2.82"/>
			</g>
			<g>
				<circle class="st3" cx="149.99" cy="69.74" r="2.82"/>
			</g>
			<g>
				<circle class="st3" cx="162.08" cy="69.74" r="2.82"/>
			</g>
			<g>
				<circle class="st3" cx="174.18" cy="69.74" r="2.82"/>
			</g>
			<g>
				<circle class="st3" cx="186.28" cy="69.74" r="2.82"/>
			</g>
			<g>
				<circle class="st3" cx="198.37" cy="69.74" r="2.82"/>
			</g>
			<g>
				<circle class="st3" cx="210.47" cy="69.74" r="2.82"/>
			</g>
			<g>
				<circle class="st3" cx="222.57" cy="69.74" r="2.82"/>
			</g>
			<g>
				<circle class="st3" cx="234.66" cy="69.74" r="2.82"/>
			</g>
			<g>
				<circle class="st3" cx="246.76" cy="69.74" r="2.82"/>
			</g>
			<g>
				<circle class="st3" cx="258.85" cy="69.74" r="2.82"/>
			</g>
			<g>
				<circle class="st3" cx="270.95" cy="69.74" r="2.82"/>
			</g>
			<g>
				<circle class="st3" cx="283.05" cy="69.74" r="2.82"/>
			</g>
			<g>
				<circle class="st3" cx="295.14" cy="69.74" r="2.82"/>
			</g>
		</g>
		<g>
			<g>
				<circle class="st3" cx="143.94" cy="79.86" r="2.82"/>
			</g>
			<g>
				<circle class="st3" cx="156.04" cy="79.86" r="2.82"/>
			</g>
			<g>
				<circle class="st3" cx="168.13" cy="79.86" r="2.82"/>
			</g>
			<g>
				<circle class="st3" cx="180.23" cy="79.86" r="2.82"/>
			</g>
			<g>
				<circle class="st3" cx="192.32" cy="79.86" r="2.82"/>
			</g>
			<g>
				<circle class="st3" cx="204.42" cy="79.86" r="2.82"/>
			</g>
			<g>
				<circle class="st3" cx="216.52" cy="79.86" r="2.82"/>
			</g>
			<g>
				<circle class="st3" cx="228.61" cy="79.86" r="2.82"/>
			</g>
			<g>
				<circle class="st3" cx="240.71" cy="79.86" r="2.82"/>
			</g>
			<g>
				<circle class="st3" cx="252.81" cy="79.86" r="2.82"/>
			</g>
			<g>
				<circle class="st3" cx="264.9" cy="79.86" r="2.82"/>
			</g>
			<g>
				<circle class="st3" cx="277" cy="79.86" r="2.82"/>
			</g>
			<g>
				<circle class="st3" cx="289.1" cy="79.86" r="2.82"/>
			</g>
			<g>
				<circle class="st3" cx="301.19" cy="79.86" r="2.82"/>
			</g>
		</g>
		<g>
			<g>
				<circle class="st3" cx="137.89" cy="89.98" r="2.82"/>
			</g>
			<g>
				<circle class="st3" cx="149.99" cy="89.98" r="2.82"/>
			</g>
			<g>
				<circle class="st3" cx="162.08" cy="89.98" r="2.82"/>
			</g>
			<g>
				<circle class="st3" cx="174.18" cy="89.98" r="2.82"/>
			</g>
			<g>
				<circle class="st3" cx="186.28" cy="89.98" r="2.82"/>
			</g>
			<g>
				<circle class="st3" cx="198.37" cy="89.98" r="2.82"/>
			</g>
			<g>
				<circle class="st3" cx="210.47" cy="89.98" r="2.82"/>
			</g>
			<g>
				<circle class="st3" cx="222.57" cy="89.98" r="2.82"/>
			</g>
			<g>
				<circle class="st3" cx="234.66" cy="89.98" r="2.82"/>
			</g>
			<g>
				<circle class="st3" cx="246.76" cy="89.98" r="2.82"/>
			</g>
			<g>
				<circle class="st3" cx="258.85" cy="89.98" r="2.82"/>
			</g>
			<g>
				<circle class="st3" cx="270.95" cy="89.98" r="2.82"/>
			</g>
			<g>
				<circle class="st3" cx="283.05" cy="89.98" r="2.82"/>
			</g>
			<g>
				<circle class="st3" cx="295.14" cy="89.98" r="2.82"/>
			</g>
		</g>
		<g>
			<g>
				<circle class="st3" cx="143.94" cy="100.1" r="2.82"/>
			</g>
			<g>
				<circle class="st3" cx="156.04" cy="100.1" r="2.82"/>
			</g>
			<g>
				<circle class="st3" cx="168.13" cy="100.1" r="2.82"/>
			</g>
			<g>
				<circle class="st3" cx="180.23" cy="100.1" r="2.82"/>
			</g>
			<g>
				<circle class="st3" cx="192.32" cy="100.1" r="2.82"/>
			</g>
			<g>
				<circle class="st3" cx="204.42" cy="100.1" r="2.82"/>
			</g>
			<g>
				<circle class="st3" cx="216.52" cy="100.1" r="2.82"/>
			</g>
			<g>
				<circle class="st3" cx="228.61" cy="100.1" r="2.82"/>
			</g>
			<g>
				<circle class="st3" cx="240.71" cy="100.1" r="2.82"/>
			</g>
			<g>
				<circle class="st3" cx="252.81" cy="100.1" r="2.82"/>
			</g>
			<g>
				<circle class="st3" cx="264.9" cy="100.1" r="2.82"/>
			</g>
			<g>
				<circle class="st3" cx="277" cy="100.1" r="2.82"/>
			</g>
			<g>
				<circle class="st3" cx="289.1" cy="100.1" r="2.82"/>
			</g>
			<g>
				<circle class="st3" cx="301.19" cy="100.1" r="2.82"/>
			</g>
		</g>
		<g>
			<g>
				<circle class="st3" cx="137.89" cy="110.21" r="2.82"/>
			</g>
			<g>
				<circle class="st3" cx="149.99" cy="110.21" r="2.82"/>
			</g>
			<g>
				<circle class="st3" cx="162.08" cy="110.21" r="2.82"/>
			</g>
			<g>
				<circle class="st3" cx="174.18" cy="110.21" r="2.82"/>
			</g>
			<g>
				<circle class="st3" cx="186.28" cy="110.21" r="2.82"/>
			</g>
			<g>
				<circle class="st3" cx="198.37" cy="110.21" r="2.82"/>
			</g>
			<g>
				<circle class="st3" cx="210.47" cy="110.21" r="2.82"/>
			</g>
			<g>
				<circle class="st3" cx="222.57" cy="110.21" r="2.82"/>
			</g>
			<g>
				<circle class="st3" cx="234.66" cy="110.21" r="2.82"/>
			</g>
			<g>
				<circle class="st3" cx="246.76" cy="110.21" r="2.82"/>
			</g>
			<g>
				<circle class="st3" cx="258.85" cy="110.21" r="2.82"/>
			</g>
			<g>
				<circle class="st3" cx="270.95" cy="110.21" r="2.82"/>
			</g>
			<g>
				<circle class="st3" cx="283.05" cy="110.21" r="2.82"/>
			</g>
			<g>
				<circle class="st3" cx="295.14" cy="110.21" r="2.82"/>
			</g>
		</g>
		<g>
			<g>
				<circle class="st3" cx="143.94" cy="120.33" r="2.82"/>
			</g>
			<g>
				<circle class="st3" cx="156.04" cy="120.33" r="2.82"/>
			</g>
			<g>
				<circle class="st3" cx="168.13" cy="120.33" r="2.82"/>
			</g>
			<g>
				<circle class="st3" cx="180.23" cy="120.33" r="2.82"/>
			</g>
			<g>
				<circle class="st3" cx="192.32" cy="120.33" r="2.82"/>
			</g>
			<g>
				<circle class="st3" cx="204.42" cy="120.33" r="2.82"/>
			</g>
			<g>
				<circle class="st3" cx="216.52" cy="120.33" r="2.82"/>
			</g>
			<g>
				<circle class="st3" cx="228.61" cy="120.33" r="2.82"/>
			</g>
			<g>
				<circle class="st3" cx="240.71" cy="120.33" r="2.82"/>
			</g>
			<g>
				<circle class="st3" cx="252.81" cy="120.33" r="2.82"/>
			</g>
			<g>
				<circle class="st3" cx="264.9" cy="120.33" r="2.82"/>
			</g>
			<g>
				<circle class="st3" cx="277" cy="120.33" r="2.82"/>
			</g>
			<g>
				<circle class="st3" cx="289.1" cy="120.33" r="2.82"/>
			</g>
			<g>
				<circle class="st3" cx="301.19" cy="120.33" r="2.82"/>
			</g>
		</g>
		<g>
			<g>
				<circle class="st3" cx="137.89" cy="130.45" r="2.82"/>
			</g>
			<g>
				<circle class="st3" cx="149.99" cy="130.45" r="2.82"/>
			</g>
			<g>
				<circle class="st3" cx="162.08" cy="130.45" r="2.82"/>
			</g>
			<g>
				<circle class="st3" cx="174.18" cy="130.45" r="2.82"/>
			</g>
			<g>
				<circle class="st3" cx="186.28" cy="130.45" r="2.82"/>
			</g>
			<g>
				<circle class="st3" cx="198.37" cy="130.45" r="2.82"/>
			</g>
			<g>
				<circle class="st3" cx="210.47" cy="130.45" r="2.82"/>
			</g>
			<g>
				<circle class="st3" cx="222.57" cy="130.45" r="2.82"/>
			</g>
			<g>
				<circle class="st3" cx="234.66" cy="130.45" r="2.82"/>
			</g>
			<g>
				<circle class="st3" cx="246.76" cy="130.45" r="2.82"/>
			</g>
			<g>
				<circle class="st3" cx="258.85" cy="130.45" r="2.82"/>
			</g>
			<g>
				<circle class="st3" cx="270.95" cy="130.45" r="2.82"/>
			</g>
			<g>
				<circle class="st3" cx="283.05" cy="130.45" r="2.82"/>
			</g>
			<g>
				<circle class="st3" cx="295.14" cy="130.45" r="2.82"/>
			</g>
		</g>
		<g>
			<g>
				<circle class="st3" cx="143.94" cy="140.57" r="2.82"/>
			</g>
			<g>
				<circle class="st3" cx="156.04" cy="140.57" r="2.82"/>
			</g>
			<g>
				<circle class="st3" cx="168.13" cy="140.57" r="2.82"/>
			</g>
			<g>
				<circle class="st3" cx="180.23" cy="140.57" r="2.82"/>
			</g>
			<g>
				<circle class="st3" cx="192.32" cy="140.57" r="2.82"/>
			</g>
			<g>
				<circle class="st3" cx="204.42" cy="140.57" r="2.82"/>
			</g>
			<g>
				<circle class="st3" cx="216.52" cy="140.57" r="2.82"/>
			</g>
			<g>
				<circle class="st3" cx="228.61" cy="140.57" r="2.82"/>
			</g>
			<g>
				<circle class="st3" cx="240.71" cy="140.57" r="2.82"/>
			</g>
			<g>
				<circle class="st3" cx="252.81" cy="140.57" r="2.82"/>
			</g>
			<g>
				<circle class="st3" cx="264.9" cy="140.57" r="2.82"/>
			</g>
			<g>
				<circle class="st3" cx="277" cy="140.57" r="2.82"/>
			</g>
			<g>
				<circle class="st3" cx="289.1" cy="140.57" r="2.82"/>
			</g>
			<g>
				<circle class="st3" cx="301.19" cy="140.57" r="2.82"/>
			</g>
		</g>
		<g>
			<g>
				<circle class="st3" cx="137.89" cy="150.69" r="2.82"/>
			</g>
			<g>
				<circle class="st3" cx="149.99" cy="150.69" r="2.82"/>
			</g>
			<g>
				<circle class="st3" cx="162.08" cy="150.69" r="2.82"/>
			</g>
			<g>
				<circle class="st3" cx="174.18" cy="150.69" r="2.82"/>
			</g>
			<g>
				<circle class="st3" cx="186.28" cy="150.69" r="2.82"/>
			</g>
			<g>
				<circle class="st3" cx="198.37" cy="150.69" r="2.82"/>
			</g>
			<g>
				<circle class="st3" cx="210.47" cy="150.69" r="2.82"/>
			</g>
			<g>
				<circle class="st3" cx="222.57" cy="150.69" r="2.82"/>
			</g>
			<g>
				<circle class="st3" cx="234.66" cy="150.69" r="2.82"/>
			</g>
			<g>
				<circle class="st3" cx="246.76" cy="150.69" r="2.82"/>
			</g>
			<g>
				<circle class="st3" cx="258.85" cy="150.69" r="2.82"/>
			</g>
			<g>
				<circle class="st3" cx="270.95" cy="150.69" r="2.82"/>
			</g>
			<g>
				<circle class="st3" cx="283.05" cy="150.69" r="2.82"/>
			</g>
		</g>
	</g>
</g>
<g>
	<path class="st0" d="M268.56,221.62h-18.9c-1.93,0-3.5-1.57-3.5-3.5s1.57-3.5,3.5-3.5h18.9c1.93,0,3.5,1.57,3.5,3.5
		S270.49,221.62,268.56,221.62z M181.88,221.62h-19.12c-1.93,0-3.5-1.57-3.5-3.5s1.57-3.5,3.5-3.5h19.12c1.93,0,3.5,1.57,3.5,3.5
		S183.81,221.62,181.88,221.62z M268.56,197.62h-10.8c-1.93,0-3.5-1.57-3.5-3.5s1.57-3.5,3.5-3.5h10.8c1.93,0,3.5,1.57,3.5,3.5
		S270.49,197.62,268.56,197.62z M173.69,197.62h-10.93c-1.93,0-3.5-1.57-3.5-3.5s1.57-3.5,3.5-3.5h10.93c1.93,0,3.5,1.57,3.5,3.5
		S175.62,197.62,173.69,197.62z"/>
</g>
<g>
	<path class="st13" d="M215.12,246.93v59.63c33.34-0.07,60.57-26.58,61.82-59.63H215.12z"/>
</g>
<g>
	<path class="st13" d="M215.37,246.93h-62.31c1.25,33.09,28.55,59.64,61.94,59.64c0.13,0,0.25-0.01,0.37-0.01V246.93z"/>
</g>
<g class="st1">
	<path class="st13" d="M215.37,246.93h-62.31c1.25,33.09,28.55,59.64,61.94,59.64c0.13,0,0.25-0.01,0.37-0.01V246.93z"/>
</g>
</svg>
